<svg id="Ebene_1" xmlns="http://www.w3.org/2000/svg" viewBox="0 0 64 64"><defs><style>.cls-1{fill:#565656;fill-rule:evenodd;}</style></defs><path class="cls-1" d="M32,23.42l20.52-7.07a1.89,1.89,0,0,1,2.44,1,1.85,1.85,0,0,1-1.05,2.41l-.07,0-20,6.88V51.3a1.88,1.88,0,1,1-3.76,0V26.68L10,19.6a1.87,1.87,0,0,1-1.1-2.4,1.89,1.89,0,0,1,2.42-1.09Zm.86-22.3a3.36,3.36,0,0,0-1.78,0L.89,10.63A1.33,1.33,0,0,0,0,11.83V50.17a1.35,1.35,0,0,0,.89,1.2l30.22,9.52a3.58,3.58,0,0,0,1.78,0l30.22-9.52a1.33,1.33,0,0,0,.89-1.2V11.83a1.36,1.36,0,0,0-.89-1.2L32.89,1.12Z"/></svg>
