<svg xmlns="http://www.w3.org/2000/svg" viewBox="0 0 701.1 180.9"><path d="M211.9 95.1c-7.5-2.6-8.1-3.7-8.1-4.8 0-2.3 3.4-2.5 4.8-2.5 4.8 0 9.7 2 11.8 3.1.6.3 1.3.4 2 .1.6-.3 1.1-.8 1.3-1.5l3.2-12.8c.2-1-.2-2-1.2-2.5-4.7-2.4-11.3-3.8-17.6-3.8-15.5 0-26.4 9-26.4 21.7-.1 6.3 3 14.8 18.5 20 7.1 2.4 7.1 3.5 7.1 4.8 0 .7 0 2.6-5.7 2.6-4.8 0-11.5-2.1-14.8-4.1-.6-.4-1.3-.4-2-.2-.7.3-1.1.8-1.3 1.5l-3.3 13.1c-.2 1 .2 2 1.1 2.5 5.3 2.9 12.7 4.5 20.2 4.5 17.2 0 28.6-8.2 28.6-21.6-.1-9.5-6.4-16-18.2-20.1zm82.8-21c0-1.2-1-2.2-2.2-2.2H274c-1.2 0-2.2 1-2.2 2.2v35.3c0 1.3-.2 2.3-.5 3.1v.1c-.9 2.3-3.3 5-7.2 5-2 0-7.1 0-7.1-11.6V74.1c0-1.2-1-2.2-2.2-2.2h-18.5c-1.2 0-2.2 1-2.2 2.2V109c0 17.8 8.4 28.1 23.1 28.1 8.4 0 13.9-3.5 17.2-6.8l.4 3.5c.1 1.1 1.1 2 2.2 2h16c.6 0 1.2-.2 1.6-.7.4-.4.6-1 .6-1.6-.2-4.6-.5-10.9-.5-19V74.1zm45.9-3.5c-7.4 0-13.6 2.3-18.3 6.7l-.4-3.4c-.1-1.1-1.1-2-2.2-2h-16c-.6 0-1.2.2-1.6.7-.4.4-.6 1-.6 1.6.3 5.8.5 12.2.5 19.8v56.1c0 1.2 1 2.2 2.2 2.2h18.5c1.2 0 2.2-1 2.2-2.2V133c3.5 2.5 8.2 3.9 13.5 3.9 14.1 0 29.2-10.7 29.2-34-.1-21.2-13.7-32.3-27-32.3zm-6.8 47.8c-4.1 0-7.6-2.8-8.6-7-.2-1.1-.3-2.1-.3-3.4v-8.1c0-1 .1-2 .3-2.8 1-4.4 4.7-7.6 8.9-7.6 2.4 0 10.3 1 10.3 14.4-.1 9.1-4 14.5-10.6 14.5zm67.4-23.3c-7.5-2.6-8.1-3.7-8.1-4.8 0-2.3 3.4-2.5 4.8-2.5 4.8 0 9.7 2 11.8 3.1.6.3 1.3.4 2 .1.6-.3 1.1-.8 1.3-1.5l3.2-12.8c.2-1-.2-2-1.2-2.5-4.7-2.4-11.3-3.8-17.6-3.8-15.5 0-26.4 9-26.4 21.7-.2 12 11.5 17.7 18.5 20 7.1 2.4 7.1 3.5 7.1 4.8 0 .7 0 2.6-5.7 2.6-4.8 0-11.5-2.1-14.8-4.1-.6-.4-1.3-.4-2-.2-.7.3-1.1.8-1.3 1.5l-3.3 13.1c-.2 1 .2 2 1.1 2.5 5.3 2.9 12.7 4.5 20.2 4.5 17.2 0 27.8-8.2 27.8-21.6 0-9.5-5.6-16-17.4-20.1zm53-24.5c-10.1 0-18.6 3.8-24.5 11-4.9 6.1-7.8 14.4-7.8 22.9 0 20 13 32.5 33.9 32.5 8.6 0 16.1-1.3 22.4-3.9 1-.4 1.5-1.4 1.3-2.5l-2.4-12.5c-.1-.6-.5-1.2-1.1-1.5-.6-.3-1.2-.4-1.8-.2-4.9 1.7-9.8 2.4-15.7 2.4-5.6 0-12.2-1.8-14.1-6.9H480c1.1 0 2-.8 2.2-1.8.3-1.7.6-4.6.6-7.7 0-8.4-2.3-16.1-6.5-21.7-4.9-6.6-12.6-10.1-22.1-10.1zm-9.8 24.3c1-3.5 3.5-7.6 8.7-7.6 5.9 0 7.6 4.5 8.1 7.6h-16.8zm103.2-22c-.4-.6-1.1-1-1.8-1h-19.4c-1 0-1.9.7-2.1 1.6l-7.7 27.6c-.5 1.9-.9 3.7-1.3 5.4-.4-1.8-.9-3.6-1.4-5.5l-8-27.6c-.3-.9-1.1-1.6-2.1-1.6h-20c-.7 0-1.4.4-1.8.9-.4.6-.5 1.3-.3 2l21.6 59.4c.3.9 1.2 1.5 2.1 1.5h18.5c.9 0 1.8-.6 2.1-1.4l22.1-59.4c.1-.6 0-1.3-.5-1.9zm30.2-2.3c-10.1 0-18.6 3.8-24.5 11-4.9 6.1-7.8 14.4-7.8 22.9 0 20 13 32.5 33.9 32.5 8.6 0 16.1-1.3 22.4-3.9 1-.4 1.5-1.4 1.3-2.5l-2.4-12.5c-.1-.6-.5-1.2-1.1-1.5-.6-.3-1.2-.4-1.8-.2-4.9 1.7-9.8 2.4-15.7 2.4-5.6 0-12.2-1.8-14.1-6.9h35.6c1.1 0 2-.8 2.2-1.8.3-1.7.6-4.6.6-7.7 0-8.4-2.3-16.1-6.5-21.7-5-6.6-12.6-10.1-22.1-10.1zm-9.9 24.3c1-3.5 3.5-7.6 8.7-7.6 5.9 0 7.6 4.5 8.1 7.6h-16.8zm80.8-24.3c-8.3 0-13.8 3.6-17 6.7l-.3-3.4c-.1-1.1-1.1-2-2.2-2h-16c-.6 0-1.2.2-1.6.7s-.6 1-.6 1.6c.3 5.5.5 11.6.5 18.8v40.4c0 1.2 1 2.2 2.2 2.2h18.5c1.2 0 2.2-1 2.2-2.2V99.3c0-1.8.2-3 .5-3.8.7-1.7 2.7-5.5 7.4-5.5 1.8 0 7.1 0 7.1 10.7v32.9c0 1.2 1 2.2 2.2 2.2H670c1.2 0 2.2-1 2.2-2.2V98.4c0-17.4-8.8-27.8-23.5-27.8zM139.1 41.4c.3-.6.7-1.2 1-1.8l.3-.6c.3-.6.5-1.2.8-1.9.1-.2.2-.5.3-.7.2-.6.4-1.3.5-1.9.1-.3.1-.5.2-.8.1-.7.2-1.3.3-2 0-.2.1-.4.1-.7v-.2c.1-.6.1-1.1.1-1.7 0-.4.1-.8.1-1.2v-.2c0-.4 0-.8-.1-1.1 0-.5 0-1-.1-1.4 0-.5-.1-.9-.2-1.4-.1-.4-.1-.9-.2-1.3l-.3-1.5c-.1-.4-.2-.8-.3-1.1-.2-.5-.3-1-.5-1.6l-.3-.9c-.2-.5-.5-1.1-.7-1.6-.1-.3-.3-.6-.4-.8l-.9-1.5c-.2-.3-.3-.5-.5-.8-.3-.5-.6-.9-1-1.4-.2-.3-.4-.5-.6-.8-.3-.4-.7-.8-1-1.2-.2-.3-.5-.6-.7-.8-.3-.4-.7-.7-1.1-1-.3-.3-.6-.6-.9-.8-.4-.3-.7-.6-1.1-.9-.3-.3-.7-.5-1-.8-.4-.3-.8-.5-1.2-.8-.4-.2-.7-.5-1.1-.7-.4-.2-.9-.5-1.3-.7-.4-.2-.7-.4-1.1-.5l-1.5-.6c-.3-.1-.6-.2-1-.4-.6-.2-1.2-.3-1.8-.5-.3-.1-.6-.2-.9-.2-.6-.1-1.2-.2-1.9-.3-.3 0-.5-.1-.8-.1h-.2c-.2 0-.5 0-.7-.1-.7-.1-1.3-.1-2-.1H27.6C12.4 0 0 12.4 0 27.6c0 15.3 12.4 27.6 27.6 27.6h39.5l-48.7 84.1c-7.6 13.2-3 30.1 10.2 37.7 13.2 7.6 30.1 3 37.7-10.2L139 41.6c0-.1 0-.1.1-.2z"/></svg>
